<?xml version="1.0" encoding="utf-8"?>
<!-- Generator: Adobe Illustrator 16.0.4, SVG Export Plug-In . SVG Version: 6.00 Build 0)  -->
<!DOCTYPE svg PUBLIC "-//W3C//DTD SVG 1.1//EN" "http://www.w3.org/Graphics/SVG/1.1/DTD/svg11.dtd">
<svg version="1.1" id="Layer_1" xmlns="http://www.w3.org/2000/svg" xmlns:xlink="http://www.w3.org/1999/xlink" x="0px" y="0px"
	 width="24px" height="24px" viewBox="0 0 24 24" enable-background="new 0 0 24 24" xml:space="preserve">

<symbol  id="ic_x5F_settings_x5F_sm_x5F_darkreg" viewBox="0 -24 24 24">
	<polygon fill="none" points="24,-24 0,-24 0,0 24,0 	"/>
	<g>
		<g>
			<linearGradient id="SVGID_38_" gradientUnits="userSpaceOnUse" x1="12" y1="-22" x2="12" y2="-2">
				<stop  offset="0" style="stop-color:#000000;stop-opacity:0.7"/>
				<stop  offset="1" style="stop-color:#000000;stop-opacity:0.6"/>
			</linearGradient>
			<path fill="url(#SVGID_38_)" d="M21.619-10.514l-2.418,0.595c-0.156,0.542-0.367,1.06-0.636,1.542l1.286,2.127
				c0.117,0.193,0.094,0.447-0.074,0.613l-1.414,1.414c-0.166,0.168-0.42,0.191-0.613,0.074l-2.127-1.286
				c-0.482,0.267-1,0.479-1.541,0.636l-0.596,2.418C13.433-2.162,13.236-2,13-2h-2c-0.236,0-0.434-0.162-0.486-0.381L9.918-4.799
				C9.377-4.955,8.859-5.168,8.375-5.436L6.248-4.147C6.056-4.031,5.803-4.056,5.636-4.223L4.221-5.637
				c-0.166-0.167-0.19-0.42-0.074-0.612l1.287-2.128C5.166-8.861,4.955-9.378,4.799-9.919l-2.418-0.595C2.162-10.567,2-10.764,2-11
				v-2c0-0.236,0.162-0.433,0.381-0.486l2.418-0.595c0.156-0.542,0.369-1.059,0.635-1.542l-1.287-2.129
				c-0.116-0.192-0.092-0.445,0.074-0.612l1.415-1.414c0.167-0.167,0.42-0.191,0.612-0.075l2.129,1.288
				c0.482-0.268,1-0.479,1.541-0.636l0.596-2.418C10.566-21.838,10.764-22,11-22h2c0.236,0,0.433,0.162,0.486,0.381l0.596,2.418
				c0.541,0.156,1.057,0.368,1.541,0.636l2.127-1.287c0.193-0.117,0.447-0.094,0.613,0.074l1.414,1.414
				c0.168,0.166,0.191,0.42,0.074,0.613l-1.287,2.127c0.268,0.483,0.48,1.001,0.637,1.543l2.418,0.595
				C21.838-13.433,22-13.236,22-13v2C22-10.764,21.838-10.567,21.619-10.514z M16.1-12c0-2.264-1.836-4.1-4.1-4.1
				c-2.266,0-4.101,1.836-4.101,4.1c0,2.265,1.835,4.1,4.101,4.1C14.264-7.9,16.1-9.735,16.1-12z"/>
		</g>
		<g opacity="0.05">
			<path d="M13-2.5L13-2.5l0.597-2.418l0.069-0.281l0.278-0.08c0.507-0.146,0.991-0.346,1.438-0.593l0.253-0.14l0.248,0.149
				l2.128,1.286l1.414-1.415l-1.286-2.127l-0.15-0.248l0.141-0.254c0.245-0.439,0.444-0.923,0.592-1.438l0.08-0.277l0.281-0.069
				L21.5-11l0-2.001l-2.418-0.595l-0.281-0.069l-0.08-0.277c-0.146-0.508-0.346-0.992-0.594-1.439l-0.14-0.253l0.15-0.248
				l1.287-2.128l-1.415-1.414l-2.127,1.287l-0.248,0.149l-0.253-0.14c-0.447-0.247-0.931-0.446-1.438-0.593l-0.278-0.08
				l-0.069-0.281L13-21.5h-2.001l-0.596,2.418l-0.069,0.281l-0.278,0.08c-0.51,0.147-0.994,0.347-1.437,0.593l-0.253,0.141
				l-0.248-0.15l-2.129-1.287l-1.415,1.414l1.287,2.129l0.149,0.247l-0.139,0.253c-0.248,0.45-0.447,0.935-0.592,1.439l-0.08,0.277
				l-0.281,0.069L2.5-13l0,2.001l2.418,0.595l0.281,0.069l0.08,0.277c0.147,0.511,0.347,0.995,0.592,1.438l0.14,0.254l-0.15,0.247
				L4.574-5.99l1.415,1.415l2.127-1.288l0.247-0.149l0.253,0.14c0.449,0.247,0.933,0.447,1.44,0.594l0.278,0.08l0.069,0.281L11-2.5
				H13 M12-16.6c2.536,0,4.6,2.063,4.6,4.6S14.536-7.4,12-7.4c-2.537,0-4.601-2.063-4.601-4.6S9.463-16.6,12-16.6 M13-2h-2
				c-0.236,0-0.434-0.162-0.486-0.381L9.918-4.799C9.377-4.955,8.859-5.168,8.375-5.436L6.248-4.147
				C6.169-4.1,6.079-4.075,5.99-4.075c-0.128,0-0.256-0.049-0.354-0.147L4.221-5.637c-0.166-0.167-0.19-0.42-0.074-0.612
				l1.287-2.128C5.166-8.861,4.955-9.378,4.799-9.919l-2.418-0.595C2.162-10.567,2-10.764,2-11v-2c0-0.236,0.162-0.433,0.381-0.486
				l2.418-0.595c0.156-0.542,0.369-1.059,0.635-1.542l-1.287-2.129c-0.116-0.192-0.092-0.445,0.074-0.612l1.415-1.414
				c0.098-0.099,0.226-0.147,0.354-0.147c0.089,0,0.179,0.024,0.258,0.072l2.129,1.288c0.482-0.268,1-0.479,1.541-0.636l0.596-2.418
				C10.566-21.838,10.764-22,11-22h2c0.236,0,0.433,0.162,0.486,0.381l0.596,2.418c0.541,0.156,1.057,0.368,1.541,0.636l2.127-1.287
				c0.08-0.049,0.17-0.073,0.261-0.073c0.128,0,0.255,0.049,0.353,0.147l1.414,1.414c0.168,0.166,0.191,0.42,0.074,0.613
				l-1.287,2.127c0.268,0.483,0.48,1.001,0.637,1.543l2.418,0.595C21.838-13.433,22-13.236,22-13v2c0,0.236-0.162,0.433-0.381,0.486
				l-2.418,0.595c-0.156,0.542-0.367,1.06-0.636,1.542l1.286,2.127c0.117,0.193,0.094,0.447-0.074,0.613l-1.414,1.414
				c-0.097,0.099-0.225,0.147-0.353,0.147c-0.09,0-0.181-0.024-0.261-0.073l-2.127-1.286c-0.482,0.267-1,0.479-1.541,0.636
				l-0.596,2.418C13.433-2.162,13.236-2,13-2L13-2z M12-16.1c-2.266,0-4.101,1.836-4.101,4.1c0,2.265,1.835,4.1,4.101,4.1
				c2.264,0,4.1-1.835,4.1-4.1C16.1-14.264,14.264-16.1,12-16.1L12-16.1z"/>
		</g>
	</g>
	<g>
		<g opacity="0.3">
			<path fill="#231F20" d="M4.159-18.233l1.276,2.109v0.5l-1.287-2.127C4.057-17.902,4.078-18.08,4.159-18.233z M12-16.1
				c-2.18,0-3.944,1.705-4.075,3.85c-0.005-0.084-0.025-0.164-0.025-0.25c0-2.264,1.835-4.1,4.101-4.1c2.264,0,4.1,1.836,4.1,4.1
				c0,0.086-0.02,0.166-0.025,0.25C15.942-14.395,14.178-16.1,12-16.1z M5.435-8.877v0.5c-0.05-0.09-0.088-0.187-0.134-0.278
				C5.1-9.059,4.926-9.478,4.799-9.919l-2.418-0.595C2.162-10.567,2-10.764,2-11v-0.5c0,0.236,0.162,0.433,0.381,0.486l2.418,0.595
				C4.955-9.877,5.166-9.359,5.435-8.877z M21.619-10.514l-2.418,0.595c-0.127,0.441-0.301,0.86-0.502,1.264
				c-0.046,0.092-0.084,0.188-0.134,0.278v-0.5c0.269-0.482,0.479-1,0.636-1.542l2.418-0.595C21.838-11.067,22-11.264,22-11.5v0.5
				C22-10.764,21.838-10.567,21.619-10.514z M19.841-6.268l0.011,0.018c0.117,0.193,0.094,0.447-0.074,0.613l-1.414,1.414
				c-0.166,0.168-0.42,0.191-0.613,0.074l-2.127-1.286c-0.482,0.267-1,0.479-1.541,0.636l-0.596,2.418C13.433-2.162,13.236-2,13-2
				h-2c-0.236,0-0.434-0.162-0.486-0.381L9.918-4.799C9.377-4.955,8.859-5.168,8.375-5.436L6.248-4.147
				C6.056-4.031,5.803-4.056,5.636-4.223L4.221-5.637c-0.166-0.167-0.19-0.42-0.074-0.612l0.011-0.019
				c0.023,0.043,0.026,0.094,0.063,0.131l1.415,1.414c0.167,0.167,0.42,0.191,0.612,0.075l2.127-1.288
				c0.484,0.268,1.002,0.48,1.543,0.637l0.596,2.418C10.566-2.662,10.764-2.5,11-2.5h2c0.236,0,0.433-0.162,0.486-0.381l0.596-2.418
				c0.541-0.156,1.059-0.369,1.541-0.636l2.127,1.286c0.193,0.117,0.447,0.094,0.613-0.074l1.414-1.414
				C19.814-6.174,19.818-6.225,19.841-6.268z M18.564-15.624v-0.5l1.276-2.109c0.082,0.153,0.102,0.331,0.011,0.482L18.564-15.624z"
				/>
		</g>
	</g>
	<path fill="#FFFFFF" fill-opacity="0.3" d="M12-8.4c2.178,0,3.942-1.703,4.074-3.85C16.08-12.166,16.1-12.086,16.1-12
		c0,2.265-1.836,4.1-4.1,4.1c-2.266,0-4.101-1.835-4.101-4.1c0-0.086,0.02-0.166,0.025-0.25C8.056-10.104,9.82-8.4,12-8.4z
		 M5.301-8.655c0.046,0.092,0.084,0.188,0.134,0.278L4.159-6.268C4.111-6.188,4.076-6.081,4.075-5.992v-0.539
		c0-0.076,0.031-0.15,0.073-0.219L5.301-8.655z M19.852-6.75c0.042,0.068,0.073,0.143,0.073,0.219v0.539
		c-0.001-0.089-0.036-0.196-0.084-0.275l-1.275-2.109c0.05-0.09,0.088-0.187,0.134-0.278L19.852-6.75z M21.619-13.486l-2.418-0.595
		c-0.156-0.542-0.369-1.06-0.637-1.543l0.134-0.222c0.201,0.404,0.376,0.823,0.503,1.265l2.418,0.595
		C21.838-13.933,22-13.736,22-13.5v0.5C22-13.236,21.838-13.433,21.619-13.486z M19.777-18.364l-1.414-1.414
		c-0.166-0.168-0.42-0.191-0.613-0.074l-2.127,1.287c-0.484-0.268-1-0.479-1.541-0.636l-0.596-2.418C13.433-21.838,13.236-22,13-22
		h-2c-0.236,0-0.433,0.162-0.486,0.381l-0.596,2.418c-0.541,0.156-1.057,0.368-1.541,0.636L6.25-19.853
		c-0.193-0.117-0.447-0.094-0.613,0.074l-1.414,1.414c-0.037,0.036-0.041,0.087-0.063,0.131c-0.044,0.083-0.07,0.173-0.071,0.261
		v-0.547c0.002-0.125,0.038-0.25,0.134-0.345l1.414-1.414c0.166-0.168,0.42-0.191,0.613-0.074l2.127,1.287
		c0.484-0.268,1-0.479,1.541-0.636l0.596-2.418C10.567-22.338,10.764-22.5,11-22.5h2c0.236,0,0.433,0.162,0.486,0.381l0.596,2.418
		c0.541,0.156,1.057,0.368,1.541,0.636l2.127-1.287c0.193-0.117,0.447-0.094,0.613,0.074l1.414,1.414
		c0.097,0.095,0.132,0.22,0.134,0.345v0.547c0-0.088-0.027-0.178-0.071-0.261C19.818-18.277,19.814-18.328,19.777-18.364z
		 M5.3-15.844l0.134,0.221c-0.266,0.483-0.479,1-0.635,1.542l-2.418,0.595C2.162-13.433,2-13.236,2-13v-0.5
		c0-0.236,0.162-0.433,0.381-0.486l2.418-0.595C4.926-15.021,5.1-15.441,5.3-15.844z"/>
</symbol>

<use xlink:href="#ic_x5F_settings_x5F_sm_x5F_darkreg"  width="24" height="24" id="XMLID_72_" overflow="visible"/>
</svg>
